<?xml version="1.0" encoding="UTF-8"?><svg id="Calque_2" xmlns="http://www.w3.org/2000/svg" viewBox="0 0 237.89 237.89"><g id="Calque_1-2"><g><g><path d="M54.47,92.63h0c1.25,0,2.31,.92,2.49,2.15l5.81,40.17,6.5-41.11c.11-.7,.71-1.22,1.42-1.22h1.27c.67,0,1.25,.49,1.35,1.16l6.25,41.45,6.23-41.41c.1-.69,.7-1.2,1.39-1.2h0c1.41,0,2.48,1.25,2.26,2.64l-8.23,53.07h-3.38l-6.69-42.9-6.41,42.9h-3.24l-8.46-54.02c-.14-.89,.55-1.69,1.45-1.69Z"/><path d="M120.13,95.45c-12.88,0-23.33,10.44-23.33,23.33s10.44,23.33,23.33,23.33,23.33-10.44,23.33-23.33-10.44-23.33-23.33-23.33Zm0,42.21c-10.43,0-18.88-8.45-18.88-18.88s8.45-18.88,18.88-18.88,18.88,8.45,18.88,18.88-8.45,18.88-18.88,18.88Z"/><g><path d="M101.27,135.65h-13.69l.6,1.03h14.03c-.31-.34-.64-.68-.94-1.03Z"/><path d="M103.3,137.51h-14.65l.6,1.03h15.29c-.42-.33-.83-.68-1.24-1.03Z"/><path d="M105.8,139.38h-16.08l.6,1.03h17.06v-.03c-.53-.33-1.07-.65-1.58-1Z"/></g><g><path d="M138.62,135.65h13.69l-.6,1.03h-14.03c.31-.34,.64-.68,.94-1.03Z"/><path d="M136.6,137.51h14.65l-.6,1.03h-15.29c.42-.33,.83-.68,1.24-1.03Z"/><path d="M134.1,139.38h16.08l-.6,1.03h-17.06v-.03c.53-.33,1.07-.65,1.58-1Z"/></g><path d="M172.71,109.35c-1.36-.7-1.96-2.29-1.48-3.74,2.21-6.6-3.2-9.27-5.03-9.96-.35-.13-.72-.2-1.09-.2h-7.2c-1.71,0-3.1,1.39-3.1,3.1v26.71c0,.9,.73,1.63,1.63,1.63h.27c.9,0,1.62-.72,1.63-1.62l.11-11.32c.02-1.74,1.47-3.13,3.21-3.07l4.75,.16,.83,.14c18.5,5.65,13.92,21.83,13.09,24.32l-.27,.58c-10.28,17.46-23.86,10.11-27.5,7.68-.56-.38,2.19,2.05,1.69,2.52-.72,.67-4.18-.42-3.34,.08,23.17,13.83,32.06-8.18,32.9-10.43l.11-.35c4.11-16.14-6.15-23.61-11.23-26.24Zm-10.95-2.08c-1.78,.07-3.27-1.32-3.27-3.1v-3.78c0-.78,.6-1.42,1.37-1.47,2.68-.16,8.35-.01,8.35,4.09,0,0,.8,3.96-6.44,4.26Z"/></g><g><path d="M81.85,209.76c-1.39-.6-2.68-.59-3.89,.03-1.21,.62-2.19,1.82-2.95,3.59-.77,1.79-.96,3.33-.56,4.63,.4,1.3,1.27,2.24,2.63,2.82,1.36,.58,2.64,.58,3.85-.03,1.21-.6,2.21-1.8,2.98-3.59,.76-1.77,.96-3.31,.58-4.61s-1.25-2.25-2.63-2.85Z"/><path d="M181.15,195.95c-1.33-.28-2.58,.05-3.75,.98-1.18,.94-1.78,2.09-1.8,3.45-.02,1.36,.57,2.79,1.78,4.29,1.22,1.52,2.49,2.41,3.82,2.67,1.33,.26,2.57-.07,3.73-.99s1.75-2.06,1.79-3.41c.04-1.35-.55-2.79-1.77-4.31-1.2-1.51-2.47-2.4-3.8-2.68Z"/><path d="M172.62,209.64c-.33-.22-.76-.31-1.29-.29-.36,.01-.75,.11-1.17,.3-.42,.18-.91,.44-1.48,.76l-2.69,1.54,2.75,4.79,2.27-1.3c.75-.43,1.34-.82,1.78-1.17,.43-.35,.74-.72,.93-1.1,.19-.41,.28-.8,.27-1.18-.02-.38-.15-.79-.42-1.25-.3-.52-.61-.89-.94-1.1Z"/><path d="M135.55,217.58c-1-.92-2.24-1.28-3.72-1.08-1.5,.21-2.6,.88-3.31,2.04-.71,1.16-.94,2.69-.67,4.6,.26,1.93,.9,3.35,1.91,4.25,1.01,.91,2.25,1.26,3.71,1.06,1.46-.2,2.56-.87,3.28-2.02,.73-1.14,.96-2.68,.69-4.61-.26-1.91-.89-3.33-1.89-4.25Z"/><polygon points="195.23 190.45 188.1 187.42 191.69 194.28 195.23 190.45"/><path d="M168.6,208.42c.29-.24,.51-.52,.69-.85,.17-.33,.24-.66,.19-1-.04-.34-.17-.69-.39-1.07-.18-.31-.38-.54-.61-.7-.23-.15-.49-.23-.8-.23-.36,0-.75,.09-1.15,.28-.41,.18-.9,.44-1.47,.77l-2.04,1.17,2.13,3.72,2.21-1.27c.54-.31,.95-.58,1.23-.82Z"/><path d="M213.24,164.49c-.53-.67-1.32-1.25-2.37-1.75-1.05-.5-2.02-.75-2.91-.73-.89,.02-1.72,.29-2.49,.82-.55,.38-1.03,.84-1.43,1.38-.4,.54-.8,1.22-1.2,2.04l-.81,1.67,10.32,4.97,.81-1.67c.41-.86,.71-1.63,.89-2.33,.18-.7,.23-1.4,.15-2.09-.11-.87-.42-1.64-.96-2.31Z"/><path d="M118.95,0C53.25,0,0,53.25,0,118.95s53.25,118.95,118.95,118.95,118.95-53.25,118.95-118.95S184.64,0,118.95,0ZM30.9,185.04l-1.18-1.88,8.78-9.2-12.06,3.97-1.16-1.84,10.49-11.22,1.08,1.71-8.8,9.21,12.09-3.96,1.07,1.7-8.91,9.25,12.21-4,1.03,1.64-14.63,4.62Zm11.56,13.9l-6.51-7.3,11.08-9.88,6.51,7.3-1.31,1.17-5.2-5.83-3.04,2.71,5.2,5.83-1.31,1.17-5.2-5.83-4.12,3.67,5.2,5.83-1.31,1.17Zm14.75,1.73l-.05,.06c.63,.81,.95,1.66,.95,2.55,0,.89-.33,1.73-1,2.51-.48,.56-1.01,.97-1.59,1.22-.58,.25-1.17,.36-1.76,.33-.71-.03-1.38-.19-2.01-.48-.63-.29-1.34-.77-2.12-1.44l-4.01-3.42,9.63-11.3,3.35,2.85c.83,.7,1.42,1.26,1.77,1.67s.64,.87,.85,1.38c.23,.57,.29,1.11,.19,1.61-.1,.5-.36,.99-.76,1.46-.46,.54-.98,.88-1.58,1.02-.59,.14-1.22,.14-1.87-.03Zm12.79,2.97c-.63-.4-1.27-.66-1.91-.77-.64-.12-1.29-.08-1.97,.1-.65,.18-1.29,.52-1.92,1.03-.62,.51-1.2,1.18-1.73,2.03-.56,.88-.92,1.72-1.08,2.5-.16,.79-.18,1.5-.06,2.13,.13,.67,.4,1.26,.8,1.79s.89,.98,1.48,1.35c.8,.51,1.64,.84,2.52,1.01,.88,.17,1.79,.17,2.76,0l.12,.08-1.23,1.96c-.39-.06-.75-.11-1.08-.15-.33-.04-.73-.12-1.22-.25-.41-.11-.84-.25-1.29-.43s-.92-.42-1.4-.72c-.91-.58-1.66-1.22-2.24-1.95-.58-.73-.98-1.54-1.19-2.43-.2-.88-.2-1.82,.02-2.83s.67-2.07,1.36-3.16c.65-1.03,1.38-1.87,2.19-2.5,.81-.63,1.66-1.05,2.57-1.27,.88-.21,1.79-.22,2.72-.03,.94,.19,1.87,.58,2.79,1.16,.67,.43,1.3,.93,1.87,1.52s1.13,1.34,1.7,2.27l-1.25,1.98-.13-.08c-.33-1.02-.75-1.87-1.26-2.56-.51-.69-1.16-1.29-1.94-1.77Zm16.64,11.19c-.09,1.01-.37,2.08-.86,3.2-.49,1.12-1.07,2.06-1.76,2.82s-1.43,1.32-2.23,1.67c-.83,.37-1.69,.55-2.59,.53s-1.84-.24-2.83-.67c-.96-.41-1.76-.95-2.41-1.6s-1.12-1.4-1.4-2.25c-.29-.84-.39-1.77-.31-2.77,.08-1.01,.37-2.07,.86-3.2,.48-1.11,1.06-2.04,1.73-2.8s1.43-1.33,2.26-1.71c.79-.37,1.66-.54,2.59-.51s1.87,.24,2.81,.65c.98,.42,1.79,.96,2.43,1.62,.64,.66,1.1,1.4,1.39,2.22,.29,.85,.39,1.78,.31,2.79Zm13.55,14.58l-1.92-.46,3-12.44-6.05,7.5-1.14-.28-1.95-9.42-2.99,12.44-1.79-.43,3.48-14.44,2.62,.63,1.91,8.96,5.66-7.14,2.67,.64-3.48,14.44Zm16.2-11.55l-7.78-.64-.33,4.06,7.78,.64-.14,1.75-7.78-.64-.45,5.5,7.78,.64-.14,1.75-9.75-.8,1.22-14.8,9.75,.8-.14,1.75ZM30.54,118.95c0-48.83,39.58-88.41,88.41-88.41s88.41,39.58,88.41,88.41-39.58,88.41-88.41,88.41S30.54,167.77,30.54,118.95Zm108.9,105.93c-.19,1-.54,1.86-1.04,2.58-.52,.75-1.16,1.35-1.94,1.8-.78,.45-1.7,.75-2.76,.89-1.03,.14-2,.1-2.89-.13s-1.68-.62-2.36-1.2c-.68-.57-1.25-1.31-1.7-2.21-.45-.9-.76-1.97-.92-3.18-.16-1.2-.15-2.3,.03-3.29s.54-1.87,1.05-2.64c.49-.72,1.14-1.32,1.96-1.78,.81-.46,1.73-.76,2.74-.9,1.05-.14,2.02-.1,2.91,.13,.89,.23,1.67,.62,2.34,1.18,.69,.58,1.26,1.32,1.71,2.23,.45,.91,.76,1.97,.92,3.19s.15,2.32-.04,3.32Zm14.02,.34l-10.62-10.64,3.89,12.7-1.76,.54-4.34-14.2,2.93-.9,9.69,9.72-3.55-11.6,1.76-.54,4.34,14.2-2.34,.71Zm22.17-11.89c-.27,.66-.64,1.24-1.13,1.73-.49,.49-1.18,1-2.07,1.51l-4.57,2.62-7.39-12.88,3.81-2.19c.94-.54,1.66-.91,2.17-1.11,.51-.2,1.04-.31,1.59-.34,.62-.02,1.14,.1,1.58,.37s.81,.67,1.12,1.21c.35,.61,.49,1.22,.43,1.83-.07,.61-.28,1.19-.65,1.75l.04,.07c.97-.32,1.88-.33,2.72-.03,.84,.3,1.51,.89,2.03,1.79,.37,.64,.57,1.28,.61,1.9s-.06,1.22-.28,1.77Zm13.02-10.36c-.06,.91-.31,1.75-.75,2.54-.44,.79-1.08,1.51-1.92,2.18-.82,.65-1.67,1.11-2.55,1.37-.88,.26-1.76,.32-2.64,.18-.88-.14-1.74-.48-2.59-1.03s-1.66-1.3-2.43-2.26c-.75-.95-1.31-1.89-1.66-2.84-.35-.95-.5-1.88-.45-2.8,.05-.87,.31-1.72,.77-2.53s1.09-1.54,1.89-2.18c.83-.66,1.69-1.12,2.57-1.38,.88-.26,1.75-.32,2.62-.18,.89,.14,1.76,.49,2.61,1.04,.85,.55,1.66,1.31,2.42,2.26,.76,.96,1.32,1.92,1.67,2.88,.35,.96,.49,1.88,.43,2.75Zm12.26-10.09l-4.03-1.74-4.35,4.72,2.06,3.88-1.36,1.47-7.25-14.04,1.78-1.94,14.58,6.09-1.43,1.55Zm9.07-12.42l-7.68,.75-1.58,2.29,4.87,3.34-1.12,1.63-12.24-8.41,2.36-3.43c.51-.74,.98-1.32,1.41-1.75,.43-.43,.91-.75,1.43-.98,.58-.25,1.17-.36,1.77-.31,.6,.04,1.22,.29,1.87,.74,.88,.61,1.47,1.34,1.76,2.19,.29,.85,.32,1.77,.08,2.76l8.51-.93-1.45,2.11Zm4.68-8.44l-1.63,3.38-13.38-6.45,1.61-3.34c.63-1.31,1.22-2.3,1.78-2.98s1.13-1.21,1.72-1.58c1.01-.64,2.11-.98,3.3-1.03,1.19-.05,2.44,.23,3.74,.86,1.22,.59,2.19,1.38,2.92,2.39,.73,1.01,1.16,2.08,1.28,3.22,.08,.79,.03,1.61-.17,2.44-.19,.83-.59,1.86-1.18,3.09Z"/><path d="M201.04,177.08c-.22-.32-.56-.64-1.02-.96-.35-.24-.7-.39-1.06-.46-.36-.06-.73-.02-1.11,.14-.32,.13-.62,.33-.91,.61s-.58,.64-.88,1.08l-1.32,1.92,4.62,3.17,1.13-1.64c.35-.51,.62-1,.79-1.44,.17-.45,.23-.89,.17-1.33-.06-.4-.2-.77-.42-1.09Z"/><path d="M55.38,200.94c-.31-.33-.72-.71-1.21-1.13l-2.36-2.01-3.58,4.21,1.99,1.7c.66,.56,1.23,.99,1.7,1.28,.48,.29,.93,.46,1.35,.5,.45,.04,.85,0,1.2-.14s.69-.41,1.03-.81c.39-.46,.63-.88,.72-1.26,.09-.38,.04-.82-.16-1.32-.13-.33-.36-.67-.67-1Z"/><path d="M58.67,195.91c-.31-.32-.72-.7-1.22-1.12l-1.79-1.53-2.78,3.26,1.94,1.66c.47,.4,.87,.7,1.18,.89,.32,.19,.66,.31,1.03,.36,.37,.05,.7,0,1.01-.16s.6-.4,.88-.73c.23-.27,.38-.54,.45-.81,.07-.26,.05-.54-.05-.83-.12-.34-.34-.67-.65-.99Z"/></g></g></g></svg>